<svg width="336" height="336" viewBox="0 0 336 336" fill="none" xmlns="http://www.w3.org/2000/svg">
<circle cx="168" cy="168" r="168" fill="#FF5C00" fill-opacity="0.1"/>
<circle cx="168.002" cy="167" r="122.025" fill="#5529ad"/>
<path fill-rule="evenodd" clip-rule="evenodd" d="M106.87 210.821C106.961 211.262 107.061 211.624 107.169 211.906C107.921 213.876 108.298 216.008 108.298 218.301L109.024 214.407C109.807 208.76 110.759 204.862 111.88 202.712C113.002 200.562 113.575 199.045 113.602 198.161L114.054 193.392L112.662 194.387C112.338 196.713 111.75 199.255 110.899 202.014C110.047 204.772 109.18 207.837 108.298 211.208C107.862 204.44 107.644 200.091 107.644 198.161C107.644 196.231 107.644 194.798 107.644 193.862L106.137 194.387C106.136 194.46 106.136 194.534 106.135 194.607L104.136 194.387C101.39 204.744 100.641 214.073 101.89 222.374C103.764 234.824 107.334 241.698 108.645 237.092C109.519 234.021 110.181 230.819 110.63 227.486C110.39 228.801 111.056 232.712 112.627 239.219C114.197 245.726 118.536 250.71 125.644 254.172C125.014 252.879 123.751 249.909 121.854 245.261C119.009 238.29 120.041 227.347 120.041 229.459C120.041 231.571 123.269 234.623 123.269 233.123C123.269 232.124 123.269 230.902 123.269 229.459C123.102 230.14 123.894 231.862 125.644 234.623C127.394 237.384 130.663 239.742 135.45 241.698C134.582 240.334 133.734 238.52 132.907 236.256C132.08 233.993 131.507 231.39 131.189 228.449C131.527 228.815 132.304 229.868 133.521 231.608C134.738 233.349 136.084 234.898 137.561 236.256C137.101 233.043 136.87 229.433 136.87 225.426C136.87 221.42 137.817 217.678 139.711 214.2L139.588 213.663C140.084 214.72 140.711 215.682 141.471 216.549C144.001 219.435 146.664 221.448 149.461 222.59C148.792 222.082 147.982 220.663 147.032 218.334C146.081 216.004 145.675 213.396 145.814 210.509C144.49 205.669 143.828 205.288 143.828 209.367C143.828 213.446 144.49 216.435 145.814 218.334C144.49 217.144 143.281 215.587 142.188 213.662C141.095 211.737 140.592 209.17 140.679 205.962L138.645 204.923C138.829 204.708 139.013 204.504 139.198 204.311L137.622 203.187C136.276 204.556 135.161 206.792 134.278 209.896C133.396 213 133.111 216.187 133.424 219.457C134.143 214.04 135.02 210.44 136.056 208.655C136.775 207.416 137.5 206.339 138.23 205.424C138.124 207.404 138.257 209.212 138.63 210.848C138.286 211.392 137.699 212.893 136.87 215.353C135.471 219.505 134.997 224.491 135.45 230.312C135.45 231.176 134.602 230.234 132.907 227.486C131.869 225.803 131.153 223.753 130.758 221.336L130.949 221.16C130.818 218.827 131.005 216.128 131.508 213.061C132.011 209.994 133.377 206.416 135.606 202.326L134.935 200.094C133.823 200.565 132.68 202.827 131.508 206.881C130.472 210.461 129.844 214.925 129.624 220.272C129.494 221.25 129.365 222.384 129.235 223.674C128.85 227.523 129.501 231.996 131.189 237.092C129.633 236.149 127.784 234.087 125.644 230.907C124.888 229.785 124.317 228.447 123.876 227.094C124.014 227.331 124.162 227.56 124.322 227.779C123.422 225.994 122.972 223.902 122.972 221.503C122.972 219.103 124.071 215.177 126.268 209.723C126.268 212.217 126.268 214.436 126.268 216.378C126.268 218.32 126.541 221.517 127.087 225.969C127.091 216.957 127.469 210.814 128.22 207.541C128.972 204.268 130.408 201.099 132.527 198.033L132.527 195.969C127.057 205.138 123.872 212.112 122.972 216.891C122.679 218.448 122.529 219.884 122.523 221.198C122.265 219.775 122.118 219.155 121.854 220.175C121.16 222.855 122.548 230.907 121.275 229.459C120.426 228.493 119.674 226.565 119.018 223.674C117.679 226.857 117.217 230.858 117.633 235.677C118.048 240.495 119 244.818 120.489 248.646C119.617 248.031 118.665 247.179 117.633 246.089C116.083 244.455 113.901 238.51 112.627 230.907C111.777 225.839 112.019 217.193 113.352 204.97C111.537 212.112 110.325 218.153 109.714 223.092C109.104 228.032 108.303 232.227 107.314 235.677C104.951 232.964 103.573 226.506 103.18 216.301C102.823 207.026 103.806 200.231 106.13 195.913C106.115 202.471 106.304 207.103 106.696 209.809C105.716 215.21 105.226 219.008 105.226 221.204C105.226 223.527 105.774 225.496 106.87 227.111C106.87 223.21 106.87 219.81 106.87 216.911C106.87 214.013 106.87 212.38 106.87 212.012L106.87 210.821ZM118.499 215.369C116.313 219.504 115.22 223.289 115.22 226.724C115.22 230.25 115.458 233.31 115.932 235.906C115.919 228.75 116.28 224.288 117.013 222.519C117.671 220.931 118.184 219.752 118.552 218.983C118.622 220.469 118.753 221.986 118.945 223.534C118.908 219.196 119.132 214.83 119.616 210.437C120.099 206.044 122.522 199.335 126.883 190.309L126.268 189.581C123.061 195.294 120.844 200.799 119.616 206.098C118.936 209.031 118.563 212.121 118.499 215.369ZM130.475 191.449L130.475 189.267C127.594 194.894 125.367 199.032 123.795 201.681C121.436 205.654 122.541 210.722 122.645 211.917C122.749 213.113 122.612 210.863 124.147 205.732C125.17 202.311 127.279 197.55 130.475 191.449ZM122.865 191.775C123.391 189.722 122.605 190.26 120.508 193.392C118.411 196.523 117.023 202.83 116.345 212.315C116.028 211.757 115.681 209.625 115.305 205.917C114.928 202.21 115.116 198.068 115.87 193.491L114.205 193.491C113.65 198.399 113.65 202.709 114.205 206.421C114.76 210.132 115.474 213.067 116.345 215.225C116.697 213.482 117.223 210.707 117.922 206.898C118.621 203.09 120.269 198.049 122.865 191.775Z" fill="black"/>
<path fill-rule="evenodd" clip-rule="evenodd" d="M92.9414 171.803C93.5464 172.617 93.3647 173.024 92.3964 173.024C91.428 173.024 89.6761 172.617 87.1404 171.803C86.7623 171.662 86.7276 171.357 87.036 170.889C87.3445 170.421 87.9956 169.567 88.9894 168.326C89.3102 167.95 89.6275 167.95 89.9412 168.326C90.2549 168.702 91.255 169.861 92.9414 171.803Z" fill="black"/>
<path fill-rule="evenodd" clip-rule="evenodd" d="M81.4347 167.911C80.8466 168.086 79.0892 168.089 80.2619 167.173C81.4347 166.257 83.7551 164.418 83.7551 163.239C83.7551 162.059 82.55 161.24 83.4974 160.581C84.4449 159.922 87.7172 156.804 88.7939 153.733C89.8705 150.663 89.7719 148.303 89.7719 147.46C89.7719 146.618 89.1398 146.785 88.6621 147.205C88.1844 147.625 85.6468 149.838 84.4403 151.054C83.2339 152.27 82.6051 153.065 82.9195 151.158C83.2339 149.251 85.7755 143.797 87.2188 141.522C88.6621 139.247 91.0991 136.53 91.4483 136.53C91.7975 136.53 91.5917 137.889 90.914 139.104C90.2362 140.32 88.8941 142.612 89.5651 143.179C90.2362 143.745 91.9876 141.623 92.5394 141.119C93.0912 140.615 94.56 138.91 95.0943 140.515C95.6287 142.121 95.5739 149.071 95.3341 150.496C95.0943 151.921 93.8759 155.052 93.3253 154.572C92.7747 154.092 91.9254 152.155 91.7958 153.846C91.6661 155.537 89.2747 157.717 88.4823 158.271C87.6899 158.825 86.8974 158.982 87.6899 159.114C88.4823 159.246 89.4509 159.219 88.4823 160.109C87.5138 160.999 87.033 161.789 86.3852 162.216C86.1092 162.397 86.3042 164.249 85.0329 165.749C84.315 166.596 82.0228 167.735 81.4347 167.911Z" fill="black"/>
<path fill-rule="evenodd" clip-rule="evenodd" d="M83.3608 144.387C82.9807 144.847 82.2695 145.589 82.2695 143.4C82.2695 141.212 83.5386 138.847 86.9227 135.122C90.3068 131.396 92.7157 127.336 92.9918 126.122C93.2679 124.909 93.3427 123.817 92.7019 124.468C92.2746 124.903 91.0087 126.073 88.904 127.979C88.0671 128.037 88.2082 127.418 89.3274 126.122C91.006 124.179 92.1083 122.398 92.1083 121.428C92.1083 120.459 92.536 120.451 93.3223 120.709C93.8465 120.88 94.9754 121.523 96.7089 122.636C97.3746 122.956 97.4682 123.773 96.9897 125.088C96.272 127.061 94.5793 131.8 94.2344 132.245C93.8894 132.689 93.3223 133.58 93.3223 132.912C93.3223 132.245 92.366 132.431 91.2231 133.432C90.0803 134.432 86.1684 137.349 84.7646 140.374C83.3608 143.4 83.7408 143.926 83.3608 144.387Z" fill="black"/>
<path fill-rule="evenodd" clip-rule="evenodd" d="M74.2884 169.475C74.6555 169.178 75.1803 168.576 73.5988 168.576C72.0173 168.576 68.2883 167.496 66.9017 165.769C65.5152 164.043 64.5509 163.408 64.5509 164.589C64.5509 165.769 63.4475 166.95 63.4475 165.769C63.4475 164.589 62.9023 163.67 62.4523 165.082C62.0024 166.494 61.8572 168.602 62.4523 169.999C63.0475 171.395 64.5509 172.19 64.5509 171.25C64.5509 170.311 64.9472 169.689 65.5881 170.344C66.229 170.998 67.597 171.574 70.0086 171.574C72.4202 171.574 71.0365 170.982 70.5225 170.982C70.0086 170.982 69.5027 170.689 71.4168 170.344C73.3309 169.999 73.9213 169.773 74.2884 169.475Z" fill="black"/>
<path fill-rule="evenodd" clip-rule="evenodd" d="M69.1094 174.468C68.7439 174.708 70.0707 178.124 73.5673 178.837C75.8983 179.313 77.1601 179.551 77.3528 179.551C81.4164 182.781 84.6612 185.119 87.0874 186.564C90.7266 188.731 93.7395 190.895 101.943 191.514C107.411 191.926 114.514 190.902 123.251 188.441L128.035 186.564C128.684 186.233 128.103 185.448 126.294 184.209C123.58 182.352 120.238 181.274 117.843 181.274C115.449 181.274 114.728 181.494 114.969 182.483C115.209 183.471 114.638 186.117 109.418 186.889C104.197 187.661 95.7504 188.383 86.3313 182.483C80.0518 178.549 76.4563 176.871 75.5449 177.448C71.4982 175.302 69.353 174.309 69.1094 174.468Z" fill="black"/>
<path fill-rule="evenodd" clip-rule="evenodd" d="M124.888 120.715C123.814 122.78 121.861 125.051 120.052 125.051C118.263 125.051 116.209 124.384 114.439 123.808C113.568 123.525 112.767 123.264 112.095 123.115C110.056 122.663 109.912 123.505 106.318 122.663C102.72 121.82 101.283 121.668 100.369 122.663C99.9743 123.095 99.8532 124.097 99.6969 125.376C99.4977 127.037 99.2399 129.165 98.2516 131.122L98.068 131.489C96.4548 134.666 95.9118 135.736 96.9782 137.946C98.0798 140.238 98.2516 142.281 98.2516 146.06C98.2516 146.858 98.2204 147.52 98.193 148.052C98.0993 150.042 98.0915 150.226 100.134 148.955C100.631 148.645 101.17 148.236 101.759 147.788C104.232 145.904 107.611 143.33 112.716 144.55C115.041 145.105 116.537 145.604 117.599 145.959C119.427 146.568 119.974 146.75 121.252 146.06C121.966 145.674 122.982 145.051 124.029 144.406C125.951 143.226 127.994 141.972 128.525 141.972C129.072 141.972 130.166 141.557 131.806 140.725C134.81 142.459 137.068 145.979 138.576 151.285C140.838 159.244 139.463 167.461 135.634 172.026C131.806 176.591 128.318 177.109 126.439 177.109C124.56 177.109 122.506 176.416 126.439 175.369C130.373 174.321 133.271 171.518 134.029 170.417C134.791 169.315 133.599 169.103 130.373 169.209C129.107 169.251 127.939 169.892 126.435 170.718C124.111 171.994 120.986 173.711 115.447 174.337C109.361 175.025 104.177 174.254 99.8923 172.026C98.4352 170.417 98.5915 169.88 100.369 170.417C100.709 170.519 101.076 170.647 101.478 170.787C104.244 171.749 108.674 173.288 116.802 171.121C123.013 169.466 127.537 167.145 130.373 164.16C130.595 161.232 129.978 158.743 128.525 156.691C126.341 153.613 127.357 153.59 128.525 154.517C129.693 155.444 131.677 157.333 132.404 160.217C133.127 163.102 133.537 160.444 133.334 158.568C133.197 157.317 132.084 155.73 129.998 153.807C129.638 153.72 129.447 153.592 129.424 153.422C129.392 153.178 129.709 152.846 130.373 152.429C131.498 151.723 132.97 150.564 134.791 148.955C135.041 148.461 134.787 148.461 134.029 148.955C132.892 149.695 131.572 149.494 133.06 148.182C134.549 146.869 135.271 147.123 134.029 145.339L133.849 145.082C132.779 143.534 132.65 143.348 130.373 143.735C128.775 144.006 126.111 145.209 122.381 147.343C120.986 147.946 120.724 148.483 121.603 148.955C122.92 149.662 124.416 151.285 123.802 151.285C123.459 151.285 122.396 150.603 121.306 149.903C120.459 149.361 119.595 148.807 119.037 148.552C118.806 148.447 118.517 148.288 118.177 148.099C116.607 147.231 113.904 145.74 110.658 146.06C106.709 146.45 103.252 148.167 99.8923 152.429C97.654 155.27 96.3219 157.689 95.8923 159.684C95.1384 161.093 94.8454 160.946 95.0094 159.244C95.1462 157.857 95.2907 157.451 95.2165 157.404C95.154 157.365 94.9313 157.579 94.4157 157.677C93.2868 157.892 91.6813 157.305 92.7516 156.923C93.8219 156.541 96.0602 154.241 96.6852 151.869C97.1501 150.088 97.0837 148.27 97.0173 146.59C96.9977 146.032 96.9782 145.489 96.9782 144.968C96.9782 142.88 96.6032 140.289 95.8923 138.898C95.7243 138.569 95.5915 138.267 95.4782 138.009C95.1149 137.172 94.9548 136.8 94.4157 137.526C93.7087 138.477 92.7751 138.819 93.2438 137.526C93.7087 136.233 94.8063 133.897 95.8923 131.89C96.9782 129.883 98.6227 125.646 98.6227 124.123V123.923C98.6227 122.571 98.6227 122.279 98.0798 121.82C97.904 121.67 97.818 121.532 97.8141 121.415C97.8063 121.156 98.1969 120.991 98.8884 120.991C99.8923 120.991 99.6344 120.11 98.6227 120.11C97.6149 120.11 95.4001 119.845 94.7712 118.952C94.2829 118.254 94.9626 118.413 95.7907 118.607C96.0212 118.661 96.2634 118.718 96.4977 118.76C97.568 118.952 101.201 118.943 101.42 117.574C101.638 116.206 101.088 116.34 100.134 116.118C99.1774 115.896 98.2516 114.812 98.2516 114.316C98.2516 113.821 99.1618 114.935 99.8923 115.287C100.627 115.639 101.689 115.229 101.861 114.773C102.033 114.316 102.72 113.848 102.72 114.773C102.72 115.698 103.045 117.087 102.881 118.177C102.849 118.396 102.799 118.618 102.748 118.837C102.537 119.707 102.341 120.534 103.466 120.991C104.873 121.563 104.884 120.11 104.045 120.11C103.209 120.11 103.529 118.454 103.787 117.574C104.013 116.796 106.365 116.88 107.197 116.91L107.435 116.917C107.857 116.917 108.091 115.061 107.763 112.027C107.435 108.994 108.357 109.671 108.654 112.479C108.951 115.287 109.037 116.529 107.763 118.76C106.49 120.991 106.615 121.316 107.435 121.82C108.256 122.324 110.349 122.224 109.302 121.82C108.256 121.416 108.006 121.267 108.654 120.11C109.088 119.338 109.396 118.493 109.58 117.574C109.982 117.377 110.537 117.278 111.248 117.278C111.666 117.278 112.084 117.282 112.455 117.303C113.029 117.336 113.486 117.41 113.642 117.574C113.892 117.844 114.568 116.153 114.568 114.316C114.568 112.479 114.478 111.001 114.06 110.006C113.642 109.012 114.568 108.555 115.447 111.259C116.322 113.963 115.494 116.529 114.568 118.76C114.056 119.994 113.533 120.934 113.283 121.596C113.084 122.132 113.06 122.485 113.369 122.663C114.06 123.061 114.06 122.649 114.06 121.82C114.06 120.991 114.81 118.471 115.806 117.874C116.802 117.278 118.408 117.574 118.408 117.574C118.408 117.574 117.595 119.69 118.002 119.69C118.408 119.69 119.603 118.686 119.603 116.501C119.603 114.316 118.814 112.173 118.408 110.607C118.002 109.041 118.74 109.367 119.603 111.585C120.463 113.804 121.072 116.371 120.549 117.874C120.021 119.378 118.916 120.62 118.002 121.82C117.088 123.02 115.732 123.657 117.384 123.657C118.076 123.657 118.256 123.694 118.279 123.648C118.314 123.585 118.041 123.363 118.408 122.663L118.591 122.308C119.232 121.054 120.224 119.127 121.252 118.952C121.541 118.903 121.74 118.845 121.896 118.785C122.353 118.612 122.443 118.43 123.275 118.43C123.713 118.43 124.181 118.095 124.588 117.804C124.658 117.754 124.728 117.699 124.795 117.654C125.142 116.78 124.853 115.267 123.92 113.114C122.349 109.487 120.033 106.832 118.56 106.477C118.138 106.374 117.759 106.223 117.416 106.043C116.572 105.6 115.939 104.986 115.326 104.51C114.47 103.842 113.545 103.68 112.881 104.095C112.216 104.51 112.302 104.541 111.166 104.095C110.716 103.918 110.295 103.852 109.884 103.876C109.267 103.911 108.681 104.15 108.072 104.51C107.056 105.109 105.127 105.876 102.088 106.177C99.0524 106.477 94.0173 108.267 91.8962 110.295C89.779 112.322 88.4391 114.39 89.111 114.786C89.3884 114.95 89.7516 114.844 90.0055 114.77C90.3649 114.665 90.5055 114.624 89.8766 115.498L89.5251 115.995C88.7243 117.137 88.3063 117.726 86.3805 119.109C84.193 120.678 83.236 121.671 83.7126 122.28C83.8571 122.461 84.1032 122.52 84.3102 122.569C84.7985 122.685 85.0524 122.746 83.1305 124.239C82.8141 124.486 82.4313 124.769 81.9938 125.092C78.6696 127.541 72.2477 132.279 67.8962 141.032C64.0368 148.797 64.4352 156.352 64.6149 159.824C64.6657 160.781 64.7009 161.428 64.6266 161.684C64.3962 162.464 64.3376 162.205 64.2321 161.698C64.1774 161.436 64.1071 161.107 63.9899 160.822L63.9079 160.605C63.5798 159.772 63.1774 158.736 62.4782 160.822C62.3063 161.336 62.0641 161.894 61.8063 162.488C60.9313 164.518 59.8727 166.967 60.7946 169.527C61.9821 172.835 63.1774 173.356 64.2594 173.76C65.3376 174.165 65.5016 174.923 65.5016 173.465C65.5016 172.007 66.2087 172.662 66.7204 174.02L66.7985 174.237C67.3649 175.744 68.6696 179.233 72.0407 180.097C73.2946 180.417 74.1149 180.494 74.7555 180.555C75.9352 180.665 76.5094 180.719 78.029 182.112C80.3805 184.264 90.0016 192.133 98.3454 193.038C106.689 193.942 116.927 192.466 122.154 190.455C125.638 189.114 127.986 188.157 129.201 187.582V189.639C125.006 191.863 119.564 193.413 112.881 194.29C102.853 195.604 94.986 194.875 88.5915 191.43C84.5329 189.242 81.1032 186.509 78.7946 184.668C77.4704 183.611 76.5134 182.848 76.0173 182.651C75.7204 182.534 75.2516 182.416 74.6774 182.272C72.6227 181.755 69.2165 180.899 67.4157 178.476C65.6501 176.096 65.3649 175.949 64.0407 175.264C63.6384 175.057 63.1423 174.799 62.4782 174.416C59.6266 172.765 58.1657 170.196 59.4782 164.749C60.0837 162.244 60.779 160.862 61.404 159.624C62.1344 158.171 62.7634 156.917 63.0329 154.276L63.154 153.046C63.6266 148.107 64.3259 140.778 69.443 134.274C73.0094 129.743 76.6657 126.827 79.029 124.942C80.3532 123.886 81.2712 123.155 81.5407 122.644L81.6344 122.467C82.361 121.08 83.2243 119.437 85.1852 117.947C87.2282 116.393 87.9977 114.638 87.9977 113.114C87.9977 111.589 89.2282 108.858 96.7282 106.477C98.7673 105.828 100.322 105.343 101.537 104.965C104.779 103.953 105.591 103.699 106.799 103.101C108.451 102.28 109.455 101.815 111.166 102.287C112.881 102.759 112.693 102.759 114.209 102.759C115.728 102.759 115.916 102.614 116.947 103.712C117.201 103.983 117.404 104.227 117.58 104.442C118.119 105.096 118.427 105.472 119.295 105.472C120.447 105.472 121.588 106.583 123.506 109.015C125.427 111.446 126.888 115.152 126.158 116.718C125.931 117.206 125.81 117.708 125.713 118.177C125.713 118.528 125.611 118.979 125.435 119.481C125.322 119.911 125.162 120.324 124.888 120.715Z" fill="black"/>
<path fill-rule="evenodd" clip-rule="evenodd" d="M153.564 96.8368C151.989 96.1404 151.989 95.7922 153.564 95.7922C155.926 95.7922 158.863 95.9759 161.184 98.2637C163.505 100.551 163.28 109.327 163.28 112.131C163.28 114.935 163.033 120.73 163.993 123.641C164.503 125.188 165.723 127.201 166.755 129.354C167.663 131.252 163.751 129.651 163.638 129.458C161.184 125.277 161.184 120.454 161.184 115.021C161.184 109.338 161.704 102.005 159.672 99.4211C158.318 97.6983 156.282 96.8368 153.564 96.8368Z" fill="black"/>
<path fill-rule="evenodd" clip-rule="evenodd" d="M161.992 100.734C162.342 96.1481 160.54 92.1007 156.588 88.592C150.659 83.3291 139.196 87.5356 137.722 88.592C136.248 89.6484 135.069 91.0385 137.02 91.0385C138.97 91.0385 142.046 91.4647 142.748 93.3672C143.215 94.6355 143.387 96.2226 143.264 98.1286L146.338 98.9493C146.584 95.8368 145.947 93.4414 144.424 91.763C142.141 89.2454 140.189 89.5391 143.264 88.592C146.338 87.645 151.998 87.5121 155.38 90.4396C157.636 92.3913 158.899 94.9543 159.171 98.1286L161.992 100.734Z" fill="black"/>
<path fill-rule="evenodd" clip-rule="evenodd" d="M155.069 115.407C154.72 115.683 156.001 117.942 155.535 122.225C155.069 126.509 156.343 127.508 157.957 128.37C158.414 128.614 161.526 129.161 161.173 128.816C158.748 126.449 156.882 125.644 156.882 121.159C156.882 116.674 155.417 115.132 155.069 115.407Z" fill="black"/>
<path fill-rule="evenodd" clip-rule="evenodd" d="M150.682 100.602C150.682 100.201 147.235 96.7517 142.299 98.0352C137.363 99.3187 135.574 103.305 136.078 104.113C136.582 104.92 140.16 103.621 144.513 104.113C148.865 104.604 151.853 110.476 151.853 113.745C151.853 116.607 150.101 123.188 151.2 126.778C151.356 127.288 154.267 127.864 153.79 126.927C151.485 122.403 154.319 114.162 153.882 110.541C153.356 106.171 147.279 101.759 142.299 101.759C137.319 101.759 139.249 100.75 142.299 99.6283C145.349 98.507 150.682 101.004 150.682 100.602Z" fill="black"/>
<path fill-rule="evenodd" clip-rule="evenodd" d="M143.683 97.9647C139.369 95.5388 134.944 95.1446 130.408 96.782C123.603 99.2381 118.335 102.848 115.071 102.848C112.896 102.848 113.33 103.668 116.374 105.308C121.822 103.43 125.93 101.844 128.697 100.55C132.848 98.61 138.846 98.7566 140.23 99.4244C141.153 99.8696 142.304 99.383 143.683 97.9647Z" fill="black"/>
<path fill-rule="evenodd" clip-rule="evenodd" d="M121.457 107.029C124.809 106.325 127.258 105.461 128.805 104.437C131.929 102.368 138.455 100.348 140.319 99.8215C141.561 99.4706 140.999 99.9396 138.633 101.228L137.596 102.251C134.28 103.513 131.986 104.578 130.714 105.446C129.73 106.116 126.903 107.035 122.234 108.201" fill="black"/>
<path fill-rule="evenodd" clip-rule="evenodd" d="M129.189 105.317C127.947 106.321 127.8 106.995 128.749 107.338C130.172 107.854 134.272 108.618 136.315 108.236C138.357 107.854 139.813 104.811 141.19 104.287C142.107 103.937 142.841 103.447 143.392 102.816H139.692C138.877 104.13 138.018 105.213 137.116 106.063C135.762 107.338 130.357 106.868 130.927 105.578C131.307 104.717 132.919 103.631 135.762 102.32L131.806 102.816L129.189 105.317Z" fill="black"/>
<path fill-rule="evenodd" clip-rule="evenodd" d="M136.85 108.234V109.65C136.379 110.5 136.749 110.775 137.959 110.474C139.775 110.023 141.388 108.746 144.065 108.746C146.742 108.746 148.796 111.879 148.796 113.321C148.796 114.763 148.109 115.054 147.179 116.706C146.315 118.24 145.051 119.501 144.559 122.872C144.52 123.133 144.817 125.42 145.144 123.403C145.228 122.886 145.341 122.418 145.483 121.999C146.525 118.923 150.805 115.971 150.129 112.811C149.453 109.65 146.958 107.387 144.459 107.387C142.792 107.387 140.896 107.669 138.77 108.234V106.237L136.85 108.234Z" fill="black"/>
<path fill-rule="evenodd" clip-rule="evenodd" d="M151.999 116.682C150.324 118.485 149.093 120.207 148.308 121.849C147.129 124.313 146.666 125.905 147.76 124.74C148.854 123.576 150.26 120.763 151.999 120.009C153.159 119.506 153.159 118.397 151.999 116.682Z" fill="black"/>
<path fill-rule="evenodd" clip-rule="evenodd" d="M145.331 119.946C143.961 121.126 142.956 122.185 142.315 123.122C142.103 123.432 142.286 124.62 143.155 123.729C143.652 123.221 144.174 122.804 144.654 122.588C145.534 122.19 145.76 121.31 145.331 119.946Z" fill="black"/>
<path fill-rule="evenodd" clip-rule="evenodd" d="M140.063 109.34C137.916 111.41 136.842 113.933 136.842 116.909C136.842 121.373 136.07 123.159 137.641 121.931C139.213 120.703 141.373 119.872 143.007 119.872C144.096 119.872 145.047 119.872 145.86 119.872L146.727 118.093C144.38 117.825 142.402 118.055 140.796 118.782C138.386 119.872 137.641 121.205 137.641 118.093C137.641 114.981 140.446 109.572 142.508 108.654C143.882 108.042 143.067 108.042 140.063 108.654V109.34Z" fill="black"/>
<path fill-rule="evenodd" clip-rule="evenodd" d="M149.056 113.695C147.887 113.325 146.512 113.325 144.931 113.695C143.349 114.066 142.119 115.118 141.242 116.853C141.344 117.368 141.787 117.21 142.571 116.38C143.356 115.55 145.336 115.185 148.513 115.283L149.056 113.695Z" fill="black"/>
<path fill-rule="evenodd" clip-rule="evenodd" d="M132.101 108.195C130.446 110.261 129.392 111.821 128.939 112.875C128.26 114.457 127.529 115.912 128.939 115.912C129.88 115.912 132.423 116.124 136.569 116.549L137.365 114.648C134.44 114.648 132.304 114.648 130.958 114.648C128.939 114.648 129.816 113.363 130.958 111.965C131.72 111.034 133.103 109.937 135.108 108.674L132.101 108.195Z" fill="black"/>
<path fill-rule="evenodd" clip-rule="evenodd" d="M132.953 115.376C131.238 116.982 130.526 119.651 130.817 123.385C131.255 128.985 131.504 129.404 132.953 128.831C134.402 128.258 137.626 126.641 139.249 123.385C140.331 121.213 141.147 119.699 141.696 118.841L139.249 120.266C138.385 122.414 137.377 124.084 136.225 125.277C134.496 127.066 131.987 129.408 131.987 124.837C131.987 120.266 133.238 115.376 134.731 115.376" fill="black"/>
<path fill-rule="evenodd" clip-rule="evenodd" d="M131.629 107.542C128.137 108.902 125.522 109.759 123.785 110.113C123.558 110.159 122.25 112.282 124.196 111.754C125.153 111.495 126.051 111.273 126.893 111.087C129.446 110.525 131.025 109.887 131.629 109.172L134.3 107.542" fill="black"/>
<path fill-rule="evenodd" clip-rule="evenodd" d="M125.609 114.194C126.662 113.424 128.394 111.86 130.807 109.501V110.85L129.557 113.207C128.006 114.195 126.853 114.919 126.099 115.38C123.817 116.774 125.422 114.331 125.609 114.194Z" fill="black"/>
<path fill-rule="evenodd" clip-rule="evenodd" d="M102.501 122.66C101.327 123.033 100.235 123.466 99.2256 123.959C98.3777 124.373 99.1141 125.19 98.6581 126.009C98.2999 126.651 97.4295 127.457 98.6581 127.457C101.451 127.457 114.048 126.349 119.985 122.66C123.943 120.2 127.038 117.83 129.269 115.549L128.537 114.723C125.539 117.459 122.688 119.568 119.985 121.048C115.93 123.269 104.414 126.455 100.343 126.455C97.6297 126.455 98.867 125.414 104.055 123.332L105.84 121.717L102.501 122.66Z" fill="black"/>
<path fill-rule="evenodd" clip-rule="evenodd" d="M129.037 115.376C127.851 119.477 126.055 122.848 123.649 125.488C121.242 128.128 119.774 129.708 119.243 130.226C118.552 131.127 119.113 130.951 120.927 129.699C123.649 127.82 129.898 120.659 130.429 115.376" fill="black"/>
<path fill-rule="evenodd" clip-rule="evenodd" d="M118.67 122.958C116.964 126.399 114.68 129.629 111.816 132.648C108.952 135.666 106.062 138.174 103.146 140.172C102.167 140.774 102.436 141.223 103.953 141.518C106.229 141.96 117.463 140.816 124.479 132.648C129.157 127.202 131.738 122.533 132.223 118.64L130.637 119.879C128.427 124.505 126.374 127.919 124.479 130.12C122.585 132.321 119.482 134.716 115.171 137.304C108.761 140.016 106.313 140.524 107.825 138.829C110.094 136.287 118.176 130.087 120.241 122.258" fill="black"/>
<path fill-rule="evenodd" clip-rule="evenodd" d="M131.531 125.821C130.123 126.779 129.029 128.853 128.246 132.044C127.464 135.235 127.327 138.822 127.836 142.805L130.754 141.875C129.019 135.855 129.447 131.048 132.038 127.455" fill="black"/>
<path fill-rule="evenodd" clip-rule="evenodd" d="M128.233 133.655C126.27 138.285 124.063 141.863 121.61 144.388C117.932 148.177 118.717 148.586 120.164 147.787C121.61 146.988 126.029 143.734 128.233 136.827" fill="black"/>
<path fill-rule="evenodd" clip-rule="evenodd" d="M115.341 145.933C115.974 144.6 116.684 143.344 117.469 142.167C119.777 138.704 122.242 135.214 124.862 131.696L121.472 134.099L119.094 135.3L119.729 135.853C117.009 140.114 115.212 143.216 114.34 145.16" fill="black"/>
<path fill-rule="evenodd" clip-rule="evenodd" d="M111.755 145.16C114.205 143.636 116.375 142.087 117.555 140.045C118.958 137.617 119.266 137.617 118.478 140.045L115.786 144.005C114.97 144.718 114.267 145.24 113.677 145.571C113.019 145.94 109.837 146.354 111.755 145.16Z" fill="black"/>
<path fill-rule="evenodd" clip-rule="evenodd" d="M108.075 141.488C104.19 144.594 101.396 146.957 99.6937 148.575C97.9909 150.193 96.9823 151.476 96.668 152.422L98.097 152.81C100.493 149.009 104.645 145.235 110.553 141.488" fill="black"/>
<path fill-rule="evenodd" clip-rule="evenodd" d="M115.673 124.516C113.143 127.738 110.438 130.123 107.559 131.668C103.239 133.987 99.8539 135.247 101.841 135.247C103.828 135.247 112.615 131.043 117.485 124.516" fill="black"/>
<path fill-rule="evenodd" clip-rule="evenodd" d="M105.353 126.211C101.286 129.65 98.2253 131.915 96.1717 133.007C96.1054 133.042 94.5267 137.109 95.3594 137.453C98.3723 138.698 108.295 137.016 113.712 131.609C118.321 127.007 119.221 125.782 116.412 127.931C112.461 131.3 108.774 133.566 105.353 134.729C102.136 135.823 98.5012 136.588 95.8668 137.006C94.3 137.255 95.0785 135.245 96.2627 134.67C100.651 132.541 107.04 128.635 108.992 125.821" fill="black"/>
<path fill-rule="evenodd" clip-rule="evenodd" d="M103.065 126.871C101.112 127.87 99.5767 128.527 98.4599 128.84C97.534 129.099 99.0534 128.021 99.2898 126.499C99.5913 124.558 98.8141 122.033 99.1182 122.116C99.6471 122.261 100.538 122.638 101.79 123.246L103.065 122.635C101.356 121.615 100.098 121.007 99.2898 120.809C98.9808 120.734 99.2238 122.596 98.8813 125.533C98.8716 125.616 98.182 127.483 98.1751 127.565C98.0876 128.608 96.6398 129.278 97.1654 130.014C97.2555 130.14 97.4189 130.219 97.6558 130.25C98.2967 130.336 100.467 129.685 104.167 128.298L105.217 126.046" fill="black"/>
<path fill-rule="evenodd" clip-rule="evenodd" d="M95.9099 137.542C95.5511 138.595 95.844 138.987 96.7886 138.719C98.7529 138.162 101.014 137.608 103.57 137.056V136.266" fill="black"/>
<path fill-rule="evenodd" clip-rule="evenodd" d="M97.668 145.446C99.1008 145.25 100.324 144.965 101.147 144.566C103.642 143.353 105.829 142.545 107.708 142.141L104.524 144.566C102.022 145.841 99.7417 146.61 97.6833 146.873" fill="black"/>
<path fill-rule="evenodd" clip-rule="evenodd" d="M228.58 210.821C228.489 211.262 228.391 211.624 228.284 211.907C227.538 213.877 227.165 216.008 227.165 218.302L226.446 214.407C225.671 208.76 224.727 204.862 223.617 202.712C222.506 200.562 221.938 199.045 221.912 198.161L221.464 193.392L222.843 194.387C223.164 196.713 223.746 199.255 224.589 202.014C225.433 204.773 226.291 207.837 227.165 211.208C227.597 204.44 227.813 200.091 227.813 198.161C227.813 196.231 227.813 194.798 227.813 193.862L229.306 194.387C229.306 194.461 229.307 194.534 229.307 194.607L231.287 194.387C234.007 204.744 234.749 214.073 233.512 222.374C231.656 234.825 228.121 241.698 226.822 237.092C225.956 234.022 225.301 230.82 224.856 227.486C225.093 228.801 224.433 232.712 222.878 239.219C221.322 245.726 217.024 250.711 209.984 254.173C210.609 252.879 211.86 249.909 213.738 245.262C216.556 238.291 215.534 227.347 215.534 229.459C215.534 231.571 212.336 234.623 212.336 233.124C212.336 232.124 212.336 230.903 212.336 229.459C212.502 230.141 211.718 231.862 209.984 234.623C208.251 237.384 205.013 239.742 200.272 241.698C201.132 240.334 201.971 238.52 202.791 236.257C203.61 233.993 204.177 231.39 204.492 228.449C204.158 228.815 203.388 229.868 202.183 231.608C200.977 233.349 199.644 234.898 198.181 236.257C198.637 233.043 198.865 229.434 198.865 225.427C198.865 221.42 197.927 217.678 196.051 214.201L196.173 213.663C195.683 214.72 195.061 215.683 194.308 216.55C191.803 219.435 189.165 221.448 186.395 222.59C187.057 222.082 187.859 220.663 188.801 218.334C189.742 216.005 190.144 213.396 190.007 210.509C191.318 205.669 191.974 205.288 191.974 209.367C191.974 213.446 191.318 216.435 190.007 218.334C191.318 217.144 192.515 215.587 193.598 213.662C194.681 211.737 195.179 209.171 195.093 205.963L197.107 204.923C196.925 204.709 196.742 204.505 196.56 204.311L198.12 203.188C199.454 204.556 200.558 206.793 201.432 209.896C202.307 213 202.589 216.187 202.279 219.457C201.567 214.041 200.698 210.44 199.672 208.655C198.96 207.416 198.242 206.339 197.518 205.424C197.624 207.405 197.491 209.213 197.122 210.848C197.463 211.392 198.044 212.894 198.865 215.353C200.252 219.505 200.721 224.492 200.272 230.312C200.272 231.176 201.111 230.234 202.791 227.486C203.819 225.803 204.528 223.753 204.919 221.336L204.731 221.161C204.86 218.828 204.675 216.128 204.177 213.061C203.678 209.994 202.325 206.416 200.117 202.326L200.782 200.094C201.884 200.565 203.015 202.827 204.177 206.881C205.202 210.461 205.824 214.925 206.043 220.272C206.171 221.25 206.299 222.384 206.427 223.674C206.809 227.524 206.164 231.996 204.492 237.092C206.034 236.149 207.864 234.087 209.984 230.908C210.733 229.785 211.299 228.448 211.736 227.094C211.599 227.331 211.452 227.56 211.294 227.779C212.185 225.995 212.631 223.902 212.631 221.503C212.631 219.103 211.543 215.177 209.367 209.723C209.367 212.218 209.367 214.436 209.367 216.378C209.367 218.32 209.096 221.517 208.556 225.969C208.551 216.957 208.177 210.815 207.433 207.542C206.688 204.269 205.266 201.099 203.167 198.033L203.167 195.97C208.585 205.139 211.74 212.112 212.631 216.891C212.921 218.449 213.07 219.884 213.076 221.198C213.331 219.776 213.477 219.156 213.738 220.175C214.426 222.855 213.051 230.908 214.312 229.459C215.153 228.493 215.898 226.565 216.548 223.674C217.874 226.858 218.331 230.858 217.92 235.677C217.508 240.496 216.565 244.819 215.091 248.646C215.954 248.031 216.897 247.179 217.92 246.089C219.454 244.455 221.616 238.51 222.878 230.908C223.719 225.839 223.48 217.194 222.159 204.97C223.957 212.112 225.158 218.153 225.763 223.093C226.367 228.032 227.16 232.227 228.14 235.677C230.48 232.965 231.845 226.506 232.234 216.301C232.588 207.027 231.614 200.231 229.313 195.913C229.327 202.472 229.141 207.104 228.752 209.809C229.723 215.21 230.208 219.008 230.208 221.204C230.208 223.527 229.665 225.496 228.58 227.112C228.58 223.21 228.58 219.81 228.58 216.912C228.58 214.013 228.58 212.38 228.58 212.012L228.58 210.821ZM217.061 215.37C219.226 219.504 220.309 223.289 220.309 226.725C220.309 230.25 220.074 233.31 219.604 235.906C219.616 228.751 219.26 224.288 218.534 222.519C217.882 220.931 217.374 219.753 217.009 218.983C216.939 220.469 216.809 221.986 216.62 223.534C216.656 219.196 216.435 214.831 215.955 210.437C215.476 206.044 213.077 199.335 208.758 190.309L209.367 189.581C212.542 195.294 214.739 200.8 215.955 206.098C216.629 209.031 216.998 212.122 217.061 215.37ZM205.2 191.45L205.2 189.267C208.053 194.895 210.259 199.033 211.816 201.681C214.152 205.654 213.058 210.722 212.955 211.917C212.852 213.113 212.987 210.863 211.468 205.732C210.454 202.311 208.365 197.551 205.2 191.45ZM212.737 191.776C212.216 189.722 212.994 190.261 215.072 193.392C217.149 196.523 218.523 202.831 219.194 212.315C219.509 211.757 219.852 209.625 220.225 205.918C220.598 202.211 220.412 198.068 219.666 193.491L221.315 193.491C221.865 198.399 221.865 202.709 221.315 206.421C220.765 210.133 220.058 213.067 219.194 215.225C218.846 213.482 218.326 210.707 217.633 206.899C216.94 203.09 215.308 198.049 212.737 191.776Z" fill="black"/>
<path fill-rule="evenodd" clip-rule="evenodd" d="M242.371 171.804C241.772 172.618 241.952 173.025 242.911 173.025C243.87 173.025 245.605 172.618 248.116 171.804C248.491 171.663 248.525 171.358 248.22 170.89C247.914 170.422 247.269 169.567 246.285 168.327C245.967 167.951 245.653 167.951 245.342 168.327C245.032 168.703 244.041 169.862 242.371 171.804Z" fill="black"/>
<path fill-rule="evenodd" clip-rule="evenodd" d="M253.76 167.911C254.342 168.086 256.083 168.089 254.922 167.173C253.76 166.257 251.462 164.418 251.462 163.239C251.462 162.059 252.655 161.24 251.717 160.581C250.778 159.922 247.537 156.804 246.471 153.733C245.404 150.663 245.502 148.303 245.502 147.46C245.502 146.618 246.128 146.785 246.601 147.205C247.075 147.625 249.588 149.838 250.783 151.054C251.978 152.27 252.601 153.065 252.289 151.158C251.978 149.251 249.461 143.797 248.031 141.522C246.601 139.247 244.188 136.53 243.842 136.53C243.496 136.53 243.7 137.889 244.371 139.104C245.042 140.32 246.372 142.612 245.707 143.179C245.042 143.745 243.308 141.623 242.761 141.119C242.214 140.615 240.76 138.91 240.23 140.515C239.701 142.121 239.755 149.071 239.993 150.496C240.23 151.921 241.437 155.052 241.983 154.572C242.528 154.092 243.369 152.155 243.498 153.846C243.626 155.537 245.995 157.717 246.779 158.271C247.564 158.825 248.349 158.982 247.564 159.114C246.779 159.246 245.82 159.219 246.779 160.109C247.739 160.999 248.215 161.789 248.857 162.216C249.13 162.397 248.937 164.249 250.196 165.749C250.907 166.596 253.177 167.735 253.76 167.911Z" fill="black"/>
<path fill-rule="evenodd" clip-rule="evenodd" d="M251.853 144.387C252.229 144.847 252.934 145.589 252.934 143.4C252.934 141.212 251.677 138.847 248.325 135.122C244.973 131.396 242.587 127.336 242.313 126.122C242.04 124.909 241.966 123.817 242.601 124.468C243.024 124.903 244.278 126.073 246.362 127.979C247.191 128.037 247.051 127.418 245.943 126.122C244.28 124.179 243.189 122.398 243.189 121.428C243.189 120.459 242.765 120.451 241.986 120.709C241.467 120.88 240.349 121.523 238.632 122.636C237.972 122.956 237.88 123.773 238.354 125.088C239.065 127.061 240.741 131.8 241.083 132.245C241.424 132.689 241.986 133.58 241.986 132.912C241.986 132.245 242.933 132.431 244.065 133.432C245.197 134.432 249.072 137.349 250.462 140.374C251.853 143.4 251.476 143.926 251.853 144.387Z" fill="black"/>
<path fill-rule="evenodd" clip-rule="evenodd" d="M260.844 169.475C260.48 169.178 259.96 168.576 261.527 168.576C263.093 168.576 266.787 167.496 268.16 165.77C269.533 164.043 270.488 163.408 270.488 164.589C270.488 165.77 271.581 166.95 271.581 165.77C271.581 164.589 272.121 163.67 272.567 165.082C273.013 166.494 273.156 168.602 272.567 169.999C271.978 171.395 270.488 172.19 270.488 171.25C270.488 170.311 270.096 169.689 269.461 170.344C268.826 170.998 267.471 171.574 265.083 171.574C262.694 171.574 264.065 170.982 264.574 170.982C265.083 170.982 265.584 170.689 263.688 170.344C261.792 169.999 261.207 169.773 260.844 169.475Z" fill="black"/>
<path fill-rule="evenodd" clip-rule="evenodd" d="M265.977 174.469C266.339 174.708 265.025 178.125 261.562 178.838C259.253 179.314 258.003 179.551 257.812 179.551C253.787 182.782 250.573 185.12 248.17 186.565C244.566 188.732 241.582 190.896 233.457 191.514C228.04 191.926 221.005 190.902 212.352 188.441L207.613 186.565C206.97 186.233 207.545 185.448 209.338 184.21C212.026 182.353 215.336 181.274 217.708 181.274C220.079 181.274 220.793 181.494 220.555 182.483C220.317 183.472 220.882 186.117 226.053 186.889C231.224 187.662 239.59 188.383 248.919 182.483C255.139 178.55 258.7 176.871 259.603 177.448C263.611 175.302 265.736 174.309 265.977 174.469Z" fill="black"/>
<path fill-rule="evenodd" clip-rule="evenodd" d="M210.171 119.432C210.222 119.64 210.288 119.843 210.366 120.042C210.46 120.278 210.581 120.508 210.737 120.731C211.804 122.791 213.737 125.051 215.526 125.051C217.296 125.051 219.327 124.384 221.081 123.808C221.944 123.525 222.741 123.264 223.405 123.115C224.261 122.923 224.78 122.964 225.366 123.011C226.159 123.074 227.077 123.148 229.128 122.663C232.69 121.82 234.116 121.668 235.019 122.663C235.413 123.096 235.534 124.1 235.69 125.383C235.89 127.042 236.144 129.167 237.12 131.123L237.304 131.485C238.897 134.666 239.433 135.735 238.378 137.946C237.284 140.238 237.12 142.281 237.12 146.06C237.12 146.857 237.151 147.517 237.179 148.049C237.272 150.042 237.28 150.227 235.253 148.955C234.761 148.645 234.229 148.235 233.647 147.787C231.194 145.903 227.847 143.331 222.792 144.55C220.487 145.105 219.007 145.604 217.952 145.959C216.144 146.568 215.601 146.751 214.335 146.06C212.335 144.968 207.948 141.972 207.132 141.972C206.589 141.972 205.507 141.557 203.882 140.725C200.905 142.459 198.671 145.979 197.179 151.285C194.936 159.244 196.296 167.462 200.089 172.026C203.882 176.591 207.339 177.109 209.198 177.109C211.058 177.109 213.097 176.416 209.198 175.369C205.304 174.321 202.433 171.518 201.679 170.417C200.929 169.315 202.104 169.103 205.304 169.209C206.558 169.251 207.714 169.892 209.202 170.717C211.499 171.994 214.597 173.711 220.089 174.338C226.116 175.025 231.249 174.255 235.491 172.026C236.936 170.417 236.78 169.88 235.019 170.417C234.683 170.519 234.319 170.647 233.921 170.787C231.183 171.748 226.796 173.288 218.741 171.121C212.593 169.466 208.112 167.145 205.304 164.16C205.081 161.233 205.69 158.743 207.132 156.691C209.296 153.614 208.292 153.59 207.132 154.517C205.976 155.444 204.011 157.333 203.292 160.217C202.573 163.102 202.171 160.444 202.37 158.568C202.507 157.317 203.608 155.73 205.675 153.807C206.538 153.595 206.417 153.135 205.304 152.429C204.186 151.723 202.729 150.565 200.929 148.955C200.811 148.724 200.804 148.602 200.905 148.586C201.022 148.569 201.28 148.692 201.679 148.955C202.808 149.695 204.116 149.495 202.64 148.182C202.308 147.886 202.015 147.67 201.772 147.492C200.944 146.88 200.726 146.721 201.679 145.339L201.851 145.089C202.917 143.535 203.046 143.348 205.304 143.735C206.886 144.006 209.522 145.209 213.218 147.343C214.601 147.946 214.858 148.483 213.987 148.955C212.683 149.663 211.202 151.285 211.811 151.285C212.151 151.285 213.202 150.605 214.28 149.906C215.12 149.362 215.976 148.808 216.53 148.552C216.757 148.448 217.038 148.29 217.374 148.102C218.929 147.235 221.612 145.739 224.827 146.06C228.741 146.45 232.163 148.167 235.491 152.429C237.71 155.27 239.03 157.689 239.456 159.684C240.202 161.093 240.491 160.946 240.327 159.244C240.081 156.691 239.8 157.462 240.917 157.677C242.034 157.892 243.624 157.305 242.565 156.923C241.507 156.542 239.288 154.241 238.671 151.869C238.206 150.087 238.272 148.266 238.339 146.586C238.358 146.029 238.378 145.488 238.378 144.968C238.378 142.88 238.753 140.289 239.456 138.898C239.62 138.57 239.749 138.268 239.862 138.01C240.222 137.172 240.382 136.8 240.917 137.526C241.616 138.477 242.542 138.819 242.077 137.526C241.616 136.233 240.53 133.897 239.456 131.89C238.378 129.884 236.749 125.647 236.749 124.123C236.749 123.703 236.745 123.377 236.753 123.114C236.78 122.421 236.878 122.168 237.284 121.82C237.851 121.34 237.483 120.991 236.487 120.991C235.491 120.991 235.749 120.11 236.749 120.11C237.233 120.11 237.995 120.048 238.722 119.884C239.499 119.708 240.241 119.414 240.561 118.953C241.186 118.06 239.913 118.568 238.854 118.76C237.796 118.953 234.198 118.943 233.979 117.575C233.796 116.404 234.167 116.333 234.87 116.198L235.253 116.118C236.202 115.896 237.12 114.812 237.12 114.317C237.12 113.821 236.218 114.936 235.491 115.287C234.765 115.64 233.714 115.229 233.542 114.773C233.37 114.317 232.69 113.848 232.69 114.773C232.69 115.698 232.37 117.088 232.53 118.177C232.561 118.396 232.612 118.616 232.663 118.834C232.87 119.705 233.065 120.534 231.952 120.991C230.561 121.563 230.546 120.11 231.378 120.11C232.21 120.11 231.894 118.454 231.636 117.575C231.378 116.695 228.44 116.917 228.022 116.917C227.604 116.917 227.37 115.061 227.694 112.027C228.022 108.994 227.108 109.671 226.815 112.479C226.519 115.287 226.433 116.529 227.694 118.76C228.956 120.991 228.835 121.316 228.022 121.82C227.21 122.324 225.136 122.224 226.171 121.82C227.21 121.416 227.456 121.267 226.815 120.11C226.386 119.338 226.081 118.493 225.897 117.575C225.499 117.377 224.948 117.278 224.245 117.278C223.186 117.278 222.124 117.305 221.874 117.575C221.624 117.844 220.956 116.153 220.956 114.317C220.956 112.479 221.046 111.001 221.46 110.007C221.874 109.013 220.956 108.555 220.089 111.259C219.218 113.963 220.042 116.529 220.956 118.76C221.874 120.991 222.827 122.265 222.144 122.663C221.854 122.832 221.686 122.855 221.589 122.761C221.46 122.635 221.46 122.296 221.46 121.82C221.46 120.991 220.718 118.471 219.729 117.875C218.741 117.278 217.151 117.575 217.151 117.575C217.151 117.575 217.956 119.691 217.554 119.691C217.151 119.691 215.972 118.686 215.972 116.501C215.972 114.317 216.749 112.173 217.151 110.607C217.554 109.042 216.823 109.367 215.972 111.586C215.116 113.804 214.515 116.371 215.034 117.875C215.554 119.378 216.651 120.62 217.554 121.82C217.827 122.18 218.14 122.489 218.397 122.746C218.999 123.345 219.311 123.657 218.167 123.657C217.483 123.657 217.304 123.694 217.28 123.648C217.245 123.585 217.515 123.363 217.151 122.663L216.976 122.322C216.343 121.069 215.354 119.128 214.335 118.953C213.218 118.76 213.444 118.43 212.335 118.43C211.901 118.43 211.436 118.095 211.03 117.804C210.956 117.751 210.89 117.702 210.819 117.654C210.476 116.781 210.765 115.267 211.686 113.114C213.245 109.487 215.538 106.832 216.995 106.477C218.183 106.186 218.999 105.506 219.722 104.902L220.198 104.51C221.05 103.842 221.964 103.68 222.62 104.095C223.28 104.51 223.194 104.541 224.319 104.095C225.444 103.649 226.378 103.911 227.386 104.51C228.39 105.109 230.304 105.877 233.311 106.177C236.319 106.477 241.308 108.267 243.405 110.295C245.503 112.322 246.831 114.39 246.167 114.786C245.894 114.951 245.534 114.844 245.28 114.77C244.925 114.665 244.784 114.624 245.405 115.499C246.468 116.993 246.702 117.54 248.87 119.109C251.038 120.678 251.983 121.671 251.511 122.28C251.37 122.461 251.124 122.52 250.921 122.569C250.44 122.685 250.186 122.747 252.089 124.239C252.401 124.485 252.78 124.767 253.21 125.088C256.503 127.536 262.866 132.274 267.179 141.032C270.999 148.798 270.608 156.354 270.429 159.826C270.378 160.782 270.343 161.429 270.417 161.684C270.647 162.463 270.702 162.205 270.808 161.698C270.862 161.436 270.933 161.108 271.046 160.822C271.386 159.983 271.792 158.55 272.542 160.822C272.714 161.334 272.952 161.89 273.206 162.481C274.073 164.512 275.124 166.964 274.214 169.527C273.034 172.835 271.851 173.356 270.78 173.761C269.71 174.165 269.55 174.923 269.55 173.465C269.55 172.008 268.851 172.662 268.343 174.02L268.265 174.239C267.702 175.749 266.409 179.234 263.069 180.097C261.831 180.417 261.019 180.495 260.382 180.555C259.218 180.666 258.647 180.72 257.14 182.112C254.811 184.264 245.284 192.133 237.019 193.038C228.753 193.942 218.612 192.466 213.436 190.455C209.983 189.114 207.659 188.157 206.46 187.583V189.639C210.612 191.863 215.999 193.414 222.62 194.29C232.554 195.604 240.347 194.875 246.679 191.43C250.698 189.244 254.093 186.512 256.378 184.671C257.694 183.613 258.644 182.848 259.136 182.651C259.429 182.534 259.894 182.416 260.464 182.271C262.499 181.755 265.87 180.898 267.651 178.476C269.401 176.096 269.683 175.95 270.995 175.264C271.394 175.056 271.886 174.799 272.542 174.416C275.366 172.766 276.815 170.196 275.515 164.75C274.917 162.242 274.229 160.86 273.612 159.622C272.89 158.17 272.265 156.916 271.995 154.276L271.878 153.065C271.413 148.126 270.722 140.786 265.644 134.275C262.112 129.744 258.491 126.827 256.151 124.942C254.839 123.887 253.929 123.155 253.663 122.644C252.921 121.221 252.077 119.501 250.054 117.947C248.03 116.393 247.269 114.638 247.269 113.114C247.269 111.59 246.05 108.858 238.62 106.477C235.163 105.368 233.12 104.738 231.757 104.299C230.19 103.794 229.522 103.54 228.647 103.101C227.011 102.28 226.015 101.815 224.319 102.287C223.409 102.541 223.042 102.658 222.663 102.712C222.335 102.76 222.003 102.76 221.304 102.76C219.804 102.76 219.616 102.615 218.597 103.712C218.343 103.985 218.14 104.232 217.964 104.447C217.433 105.099 217.124 105.472 216.269 105.472C215.128 105.472 213.999 106.584 212.097 109.015C210.194 111.447 208.745 115.152 209.472 116.718C209.698 117.213 209.819 117.703 209.917 118.177C209.917 118.517 210.007 118.95 210.171 119.432Z" fill="black"/>
<path fill-rule="evenodd" clip-rule="evenodd" d="M182.322 96.8368C183.882 96.1404 183.882 95.7922 182.322 95.7922C179.983 95.7922 177.073 95.9759 174.775 98.2637C172.476 100.551 172.699 109.327 172.699 112.131C172.699 114.935 172.943 120.73 171.993 123.641C171.487 125.188 170.279 127.201 169.257 129.354C168.357 131.252 172.232 129.651 172.344 129.458C174.775 125.277 174.775 120.454 174.775 115.021C174.775 109.338 174.26 102.005 176.272 99.4211C177.614 97.6983 179.63 96.8368 182.322 96.8368Z" fill="black"/>
<path fill-rule="evenodd" clip-rule="evenodd" d="M173.978 100.734C173.632 96.1481 175.416 92.1007 179.331 88.592C185.203 83.3291 196.557 87.5356 198.017 88.592C199.477 89.6484 200.644 91.0385 198.713 91.0385C196.781 91.0385 193.734 91.4647 193.039 93.3672C192.576 94.6355 192.406 96.2226 192.528 98.1286L189.483 98.9493C189.239 95.8368 189.871 93.4414 191.379 91.763C193.64 89.2454 195.573 89.5391 192.528 88.592C189.483 87.645 183.877 87.5121 180.527 90.4396C178.293 92.3913 177.042 94.9543 176.772 98.1286L173.978 100.734Z" fill="black"/>
<path fill-rule="evenodd" clip-rule="evenodd" d="M180.838 115.407C181.183 115.683 179.914 117.942 180.376 122.225C180.838 126.509 179.576 127.508 177.977 128.37C177.525 128.614 174.442 129.161 174.792 128.816C177.194 126.449 179.042 125.644 179.042 121.159C179.042 116.674 180.493 115.132 180.838 115.407Z" fill="black"/>
<path fill-rule="evenodd" clip-rule="evenodd" d="M185.181 100.602C185.181 100.201 188.595 96.7517 193.484 98.0352C198.373 99.3187 200.145 103.305 199.645 104.113C199.146 104.92 195.602 103.621 191.291 104.113C186.98 104.604 184.021 110.476 184.021 113.745C184.021 116.607 185.756 123.188 184.668 126.778C184.513 127.288 181.63 127.864 182.102 126.927C184.385 122.403 181.579 114.162 182.011 110.541C182.532 106.171 188.551 101.759 193.484 101.759C198.416 101.759 196.504 100.75 193.484 99.6283C190.463 98.507 185.181 101.004 185.181 100.602Z" fill="black"/>
<path fill-rule="evenodd" clip-rule="evenodd" d="M192.11 97.9647C196.383 95.5388 200.766 95.1446 205.259 96.782C211.999 99.2381 217.217 102.848 220.45 102.848C222.605 102.848 222.174 103.668 219.159 105.308C213.763 103.43 209.694 101.844 206.954 100.55C202.842 98.61 196.902 98.7566 195.53 99.4244C194.616 99.8696 193.476 99.383 192.11 97.9647Z" fill="black"/>
<path fill-rule="evenodd" clip-rule="evenodd" d="M214.121 107.029C210.801 106.325 208.375 105.461 206.844 104.437C203.749 102.368 197.285 100.348 195.439 99.8215C194.209 99.4706 194.765 99.9396 197.109 101.228L198.136 102.251C201.42 103.513 203.692 104.578 204.953 105.446C205.927 106.116 208.727 107.035 213.352 108.201" fill="black"/>
<path fill-rule="evenodd" clip-rule="evenodd" d="M206.47 105.317C207.7 106.321 207.845 106.995 206.905 107.338C205.496 107.854 201.435 108.618 199.412 108.236C197.389 107.854 195.946 104.811 194.583 104.287C193.674 103.937 192.947 103.447 192.402 102.816H196.066C196.874 104.13 197.724 105.213 198.618 106.063C199.959 107.338 205.313 106.868 204.748 105.578C204.371 104.717 202.775 103.631 199.959 102.32L203.877 102.816L206.47 105.317Z" fill="black"/>
<path fill-rule="evenodd" clip-rule="evenodd" d="M198.878 108.234V109.65C199.345 110.5 198.978 110.775 197.78 110.474C195.982 110.023 194.384 108.746 191.732 108.746C189.081 108.746 187.046 111.879 187.046 113.321C187.046 114.763 187.726 115.054 188.648 116.706C189.503 118.24 190.756 119.501 191.243 122.872C191.281 123.133 190.988 125.42 190.663 123.403C190.58 122.886 190.468 122.418 190.328 121.999C189.295 118.923 185.056 115.971 185.726 112.811C186.395 109.65 188.867 107.387 191.342 107.387C192.993 107.387 194.871 107.669 196.977 108.234V106.237L198.878 108.234Z" fill="black"/>
<path fill-rule="evenodd" clip-rule="evenodd" d="M183.875 116.682C185.535 118.485 186.754 120.207 187.532 121.849C188.699 124.313 189.158 125.905 188.074 124.74C186.991 123.576 185.598 120.763 183.875 120.009C182.727 119.506 182.727 118.397 183.875 116.682Z" fill="black"/>
<path fill-rule="evenodd" clip-rule="evenodd" d="M190.48 119.946C191.836 121.126 192.832 122.185 193.467 123.122C193.677 123.432 193.496 124.62 192.635 123.729C192.143 123.221 191.625 122.804 191.15 122.588C190.279 122.19 190.055 121.31 190.48 119.946Z" fill="black"/>
<path fill-rule="evenodd" clip-rule="evenodd" d="M195.696 109.34C197.823 111.41 198.886 113.933 198.886 116.909C198.886 121.373 199.651 123.159 198.095 121.931C196.538 120.703 194.399 119.872 192.781 119.872C191.702 119.872 190.76 119.872 189.954 119.872L189.095 118.093C191.421 117.825 193.379 118.055 194.97 118.782C197.357 119.872 198.095 121.205 198.095 118.093C198.095 114.981 195.316 109.572 193.275 108.654C191.914 108.042 192.721 108.042 195.696 108.654V109.34Z" fill="black"/>
<path fill-rule="evenodd" clip-rule="evenodd" d="M186.792 113.695C187.949 113.325 189.311 113.325 190.878 113.695C192.445 114.066 193.662 115.118 194.531 116.853C194.431 117.368 193.992 117.21 193.215 116.38C192.438 115.55 190.476 115.185 187.33 115.283L186.792 113.695Z" fill="black"/>
<path fill-rule="evenodd" clip-rule="evenodd" d="M203.586 108.195C205.224 110.261 206.268 111.821 206.717 112.875C207.39 114.457 208.114 115.912 206.717 115.912C205.785 115.912 203.266 116.124 199.16 116.549L198.372 114.648C201.269 114.648 203.384 114.648 204.717 114.648C206.717 114.648 205.849 113.363 204.717 111.965C203.963 111.034 202.593 109.937 200.607 108.674L203.586 108.195Z" fill="black"/>
<path fill-rule="evenodd" clip-rule="evenodd" d="M202.74 115.376C204.439 116.982 205.144 119.651 204.855 123.385C204.422 128.985 204.175 129.404 202.74 128.831C201.304 128.258 198.111 126.641 196.504 123.385C195.432 121.213 194.624 119.699 194.08 118.841L196.504 120.266C197.359 122.414 198.358 124.084 199.499 125.277C201.212 127.066 203.697 129.408 203.697 124.837C203.697 120.266 202.458 115.376 200.979 115.376" fill="black"/>
<path fill-rule="evenodd" clip-rule="evenodd" d="M204.049 107.542C207.508 108.902 210.098 109.759 211.819 110.113C212.044 110.159 213.339 112.282 211.412 111.754C210.464 111.495 209.574 111.273 208.741 111.087C206.212 110.525 204.648 109.887 204.049 109.172L201.404 107.542" fill="black"/>
<path fill-rule="evenodd" clip-rule="evenodd" d="M210.015 114.194C208.973 113.424 207.256 111.86 204.867 109.501V110.85L206.105 113.207C207.641 114.195 208.783 114.919 209.53 115.38C211.79 116.774 210.2 114.331 210.015 114.194Z" fill="black"/>
<path fill-rule="evenodd" clip-rule="evenodd" d="M232.905 122.66C234.068 123.033 235.15 123.466 236.149 123.959C236.989 124.373 236.26 125.191 236.711 126.009C237.066 126.652 237.928 127.457 236.711 127.457C233.945 127.457 221.468 126.35 215.587 122.66C211.667 120.2 208.602 117.83 206.392 115.55L207.117 114.724C210.087 117.46 212.91 119.568 215.587 121.048C219.603 123.269 231.01 126.455 235.042 126.455C237.73 126.455 236.504 125.414 231.365 123.332L229.597 121.718L232.905 122.66Z" fill="black"/>
<path fill-rule="evenodd" clip-rule="evenodd" d="M206.621 115.376C207.796 119.477 209.575 122.848 211.959 125.488C214.342 128.128 215.797 129.708 216.322 130.226C217.007 131.127 216.451 130.951 214.654 129.699C211.959 127.82 205.768 120.659 205.242 115.376" fill="black"/>
<path fill-rule="evenodd" clip-rule="evenodd" d="M216.89 122.958C218.579 126.399 220.842 129.629 223.678 132.648C226.515 135.666 229.377 138.174 232.265 140.172C233.235 140.774 232.969 141.223 231.466 141.518C229.212 141.96 218.085 140.816 211.136 132.648C206.503 127.202 203.946 122.533 203.466 118.64L205.036 119.879C207.226 124.505 209.259 127.919 211.136 130.12C213.012 132.321 216.086 134.716 220.355 137.304C226.704 140.016 229.129 140.524 227.631 138.829C225.384 136.287 217.379 130.087 215.334 122.258" fill="black"/>
<path fill-rule="evenodd" clip-rule="evenodd" d="M204.14 125.821C205.534 126.779 206.618 128.853 207.393 132.044C208.168 135.235 208.304 138.822 207.8 142.805L204.91 141.875C206.627 135.855 206.204 131.048 203.638 127.455" fill="black"/>
<path fill-rule="evenodd" clip-rule="evenodd" d="M207.417 133.655C209.362 138.285 211.548 141.863 213.977 144.388C217.621 148.177 216.843 148.586 215.41 147.787C213.977 146.988 209.601 143.734 207.417 136.827" fill="black"/>
<path fill-rule="evenodd" clip-rule="evenodd" d="M220.188 145.933C219.561 144.6 218.858 143.344 218.081 142.167C215.794 138.704 213.353 135.214 210.757 131.696L214.115 134.099L216.471 135.3L215.842 135.853C218.536 140.114 220.315 143.216 221.18 145.16" fill="black"/>
<path fill-rule="evenodd" clip-rule="evenodd" d="M223.731 145.16C221.304 143.636 219.155 142.087 217.986 140.045C216.596 137.617 216.292 137.617 217.073 140.045L219.739 144.005C220.547 144.718 221.243 145.24 221.827 145.571C222.479 145.94 225.63 146.354 223.731 145.16Z" fill="black"/>
<path fill-rule="evenodd" clip-rule="evenodd" d="M227.373 141.489C231.221 144.594 233.988 146.957 235.675 148.575C237.362 150.194 238.361 151.476 238.672 152.422L237.256 152.81C234.883 149.009 230.771 145.235 224.919 141.489" fill="black"/>
<path fill-rule="evenodd" clip-rule="evenodd" d="M219.851 124.516C222.357 127.738 225.036 130.123 227.888 131.668C232.166 133.987 235.519 135.247 233.551 135.247C231.583 135.247 222.88 131.043 218.057 124.516" fill="black"/>
<path fill-rule="evenodd" clip-rule="evenodd" d="M230.077 126.211C234.106 129.65 237.138 131.915 239.172 133.007C239.237 133.042 240.801 137.109 239.976 137.453C236.992 138.698 227.164 137.016 221.799 131.609C217.233 127.007 216.342 125.782 219.124 127.931C223.038 131.3 226.689 133.566 230.077 134.729C233.264 135.823 236.864 136.588 239.474 137.006C241.025 137.255 240.254 135.245 239.081 134.67C234.735 132.541 228.407 128.635 226.474 125.821" fill="black"/>
<path fill-rule="evenodd" clip-rule="evenodd" d="M232.348 126.871C234.282 127.87 235.803 128.527 236.909 128.84C237.826 129.1 236.321 128.021 236.087 126.499C235.788 124.559 236.558 122.033 236.257 122.116C235.733 122.261 234.851 122.638 233.61 123.246L232.348 122.635C234.041 121.616 235.287 121.007 236.087 120.81C236.393 120.734 236.152 122.596 236.492 125.533C236.501 125.616 237.184 127.483 237.191 127.566C237.278 128.608 238.712 129.278 238.191 130.014C238.102 130.14 237.94 130.219 237.705 130.251C237.071 130.336 234.921 129.685 231.256 128.298L230.217 126.047" fill="black"/>
<path fill-rule="evenodd" clip-rule="evenodd" d="M239.435 137.542C239.791 138.595 239.501 138.987 238.565 138.719C236.619 138.162 234.38 137.608 231.848 137.056V136.266" fill="black"/>
<path fill-rule="evenodd" clip-rule="evenodd" d="M237.691 145.446C236.272 145.25 235.06 144.965 234.246 144.566C231.775 143.353 229.608 142.545 227.747 142.141L230.901 144.566C233.379 145.841 235.637 146.61 237.676 146.873" fill="black"/>
<path fill-rule="evenodd" clip-rule="evenodd" d="M129.879 129.232C129.855 129.203 129.831 129.18 129.809 129.164C129.845 129.192 129.881 129.22 129.917 129.248L129.879 129.232ZM130.92 130.081C134.674 133.389 137.196 137.892 138.481 143.517C140.689 153.183 139.823 163.105 135.691 168.633C134.459 170.282 133.34 171.545 132.175 172.669C131.715 173.112 130.334 174.348 130.113 174.575C129.779 174.918 129.621 175.162 129.488 175.549C128.726 177.763 129.283 191.563 130.526 194.578C131.927 197.976 141.692 206.193 147.534 208.473C153.214 210.69 165.461 217.323 169.054 219.779C169.146 219.842 169.272 219.93 169.41 220.027L169.486 219.914L169.845 219.667C169.908 219.623 169.908 219.623 169.972 219.579C172.542 217.823 175.031 216.181 177.968 214.373C182.477 211.599 186.425 209.467 189.534 208.253C195.376 205.973 205.14 197.756 206.542 194.358C207.784 191.343 208.342 177.543 207.58 175.329C207.446 174.942 207.289 174.698 206.954 174.355C206.734 174.128 205.352 172.892 204.893 172.449C203.728 171.325 202.609 170.062 201.376 168.413C197.244 162.885 196.379 152.963 198.587 143.297C199.868 137.687 202.38 133.193 206.15 129.863C200.873 126.411 197.476 124.194 195.963 123.215C195.471 122.897 195.333 122.829 195.473 122.838C195.664 122.851 195.474 122.936 194.722 123.392C194.325 123.634 194.058 123.797 193.843 123.927C193.448 124.166 193.083 124.383 192.698 124.607C191.706 125.183 190.662 125.757 189.48 126.366C184.755 128.802 177.337 130.289 167.145 130.91L166.814 130.907C158.213 130.187 151.824 128.77 147.587 126.586C146.406 125.977 145.362 125.403 144.37 124.827C143.984 124.603 143.62 124.386 143.225 124.147C143.01 124.017 142.743 123.854 142.346 123.612C141.594 123.156 141.404 123.071 141.595 123.058C141.735 123.049 141.596 123.117 141.105 123.435C139.595 124.412 136.212 126.62 130.92 130.081ZM170.274 220.637C170.311 220.663 170.342 220.686 170.366 220.703C170.314 220.662 170.249 220.618 170.31 220.657C170.306 220.654 170.291 220.646 170.274 220.637ZM170.31 220.657C170.316 220.661 170.324 220.665 170.332 220.671C170.328 220.668 170.324 220.666 170.32 220.663L170.31 220.657ZM168.691 220.868C168.687 220.871 168.684 220.875 168.681 220.877C168.689 220.869 168.701 220.856 168.717 220.839L168.691 220.868ZM169.292 220.204C169.323 220.17 169.349 220.141 169.368 220.121C169.279 220.224 169.279 220.224 169.244 220.276L169.292 220.204ZM207.292 128.919C207.295 128.917 207.298 128.914 207.301 128.912C207.298 128.914 207.295 128.916 207.292 128.919L207.292 128.919Z" fill="black" stroke="#FF5C00" stroke-width="1.77503"/>
<path fill-rule="evenodd" clip-rule="evenodd" d="M129.278 129.988C133.425 133.215 136.176 137.814 137.528 143.734C139.678 153.149 138.837 162.793 134.908 168.049C133.708 169.655 132.624 170.879 131.496 171.967C131.059 172.388 129.662 173.638 129.413 173.894C128.983 174.336 128.747 174.7 128.564 175.231C127.723 177.674 128.29 191.719 129.622 194.949C131.137 198.622 141.107 207.013 147.178 209.382C152.786 211.571 164.967 218.168 168.502 220.585C168.753 220.756 169.282 221.13 169.577 221.339C169.688 221.215 169.852 221.036 170.088 220.78C170.056 220.818 170.056 220.818 170.055 220.819L170.4 220.47C170.461 220.428 170.461 220.428 170.524 220.384C173.082 218.636 175.559 217.002 178.48 215.204C182.943 212.458 186.847 210.35 189.889 209.162C195.96 206.793 205.93 198.402 207.445 194.729C208.777 191.499 209.345 177.454 208.503 175.011C208.321 174.48 208.085 174.116 207.655 173.674C207.405 173.418 206.008 172.168 205.571 171.747C204.444 170.659 203.36 169.435 202.159 167.829C198.23 162.573 197.389 152.928 199.54 143.514C200.889 137.606 203.632 133.012 207.789 129.769C201.878 125.901 198.112 123.443 196.494 122.396C195.86 121.985 195.625 121.87 195.537 121.864C195.442 121.858 195.157 121.986 194.214 122.558C193.815 122.801 193.55 122.963 193.337 123.092C192.946 123.328 192.586 123.542 192.206 123.763C191.228 124.332 190.199 124.897 189.032 125.499C184.453 127.859 177.153 129.322 167.085 129.936L166.896 129.934C158.411 129.224 152.136 127.832 148.035 125.719C146.869 125.117 145.839 124.552 144.861 123.983C144.481 123.762 144.121 123.548 143.73 123.312C143.518 123.183 143.252 123.021 142.853 122.778C141.91 122.206 141.625 122.078 141.531 122.084C141.443 122.09 141.208 122.205 140.573 122.616C138.957 123.661 135.2 126.114 129.278 129.988Z" stroke="black" stroke-width="1.01748"/>
<path d="M161.31 179.394C161.31 178.102 161.594 176.946 162.16 175.926C162.727 174.883 163.418 173.976 164.234 173.206C165.073 172.435 166.161 171.562 167.498 170.588C168.654 169.704 169.561 168.967 170.218 168.378C170.898 167.788 171.465 167.142 171.918 166.44C172.485 165.556 172.768 164.558 172.768 163.448C172.768 162.722 172.496 162.088 171.952 161.544C171.431 160.977 170.672 160.694 169.674 160.694C167.43 160.694 166.308 161.77 166.308 163.924V165.318H161.684C161.662 165.25 161.628 165.091 161.582 164.842C161.56 164.592 161.548 164.298 161.548 163.958C161.548 161.6 162.33 159.832 163.894 158.654C165.481 157.475 167.476 156.886 169.878 156.886C171.986 156.886 173.607 157.294 174.74 158.11C175.874 158.926 176.61 159.844 176.95 160.864C177.313 161.884 177.494 162.836 177.494 163.72C177.494 165.284 177.143 166.678 176.44 167.902C175.738 169.103 174.899 170.123 173.924 170.962C172.972 171.778 171.782 172.673 170.354 173.648C169.266 174.396 168.45 175.008 167.906 175.484C167.521 175.824 167.238 176.152 167.056 176.47H177.63V180.618H161.31V179.394Z" fill="white"/>
</svg>
